<svg width="48" height="48" viewBox="0 0 48 48" fill="none" xmlns="http://www.w3.org/2000/svg">
<path fill-rule="evenodd" clip-rule="evenodd" d="M6.83209 0.00450134C4.73059 0.00450134 3.02734 1.70925 3.02734 3.81V44.1908C3.02734 46.293 4.73059 47.9963 6.83209 47.9963H41.1626C43.2633 47.9963 44.9681 46.293 44.9681 44.1908V15.237L30.7916 0.00450134H6.83209Z" fill="#45B058"/>
<path d="M17.5719 40.4535C17.4099 40.4535 17.2607 40.386 17.1669 40.251L14.3709 36.5235L11.5622 40.251C11.4677 40.386 11.3192 40.4535 11.1572 40.4535C10.8602 40.4535 10.6172 40.224 10.6172 39.9135C10.6172 39.8055 10.6434 39.684 10.7252 39.5895L13.6427 35.7412L10.9284 32.1217C10.8609 32.0272 10.8197 31.9192 10.8197 31.8112C10.8197 31.5547 11.0357 31.2712 11.3604 31.2712C11.5224 31.2712 11.6844 31.3522 11.7924 31.4872L14.3709 34.9582L16.9494 31.4737C17.0447 31.3387 17.1924 31.2712 17.3552 31.2712C17.6387 31.2712 17.9087 31.5007 17.9087 31.8112C17.9087 31.9192 17.8817 32.0272 17.8134 32.1217L15.0992 35.7277L18.0174 39.5895C18.0849 39.684 18.1112 39.792 18.1112 39.9C18.1112 40.197 17.8682 40.4535 17.5719 40.4535ZM25.0637 40.359H20.9724C20.5262 40.359 20.1617 39.9945 20.1617 39.549V31.8112C20.1617 31.5142 20.4047 31.2712 20.7422 31.2712C21.0392 31.2712 21.2829 31.5142 21.2829 31.8112V39.36H25.0637C25.3329 39.36 25.5497 39.576 25.5497 39.846C25.5497 40.143 25.3329 40.359 25.0637 40.359ZM30.3002 40.521C28.9637 40.521 27.9092 40.0755 27.1404 39.3997C27.0189 39.2917 26.9649 39.1432 26.9649 38.9947C26.9649 38.7247 27.1674 38.4277 27.4914 38.4277C27.5994 38.4277 27.7209 38.4547 27.8162 38.5357C28.4372 39.0892 29.3012 39.5212 30.3414 39.5212C31.9487 39.5212 32.4609 38.6572 32.4609 37.968C32.4609 35.6452 27.1277 36.9285 27.1277 33.714C27.1277 32.229 28.4507 31.2157 30.2199 31.2157C31.3809 31.2157 32.3807 31.5667 33.1097 32.1742C33.2312 32.2822 33.2994 32.4307 33.2994 32.5792C33.2994 32.8492 33.0692 33.1192 32.7722 33.1192C32.6634 33.1192 32.5419 33.0787 32.4482 32.9977C31.7859 32.4577 30.9632 32.2147 30.1389 32.2147C29.0589 32.2147 28.2887 32.7952 28.2887 33.6465C28.2887 35.6722 33.6227 34.5105 33.6227 37.8735C33.6227 39.1845 32.7317 40.521 30.3002 40.521Z" fill="white"/>
<path fill-rule="evenodd" clip-rule="evenodd" d="M44.9646 15.264V16.014H35.3639C35.3639 16.014 30.6299 15.069 30.7686 10.9837C30.7686 10.9837 30.9239 15.264 35.2701 15.264H44.9646Z" fill="#349C42"/>
<path opacity="0.5" fill-rule="evenodd" clip-rule="evenodd" d="M30.7852 0V10.9207C30.7852 12.1628 31.6132 15.264 35.3632 15.264H44.9639L30.7852 0Z" fill="white"/>
</svg>
